<mxfile host="Electron" modified="2023-09-19T12:32:20.002Z" agent="Mozilla/5.0 (Windows NT 10.0; Win64; x64) AppleWebKit/537.36 (KHTML, like Gecko) draw.io/21.6.8 Chrome/114.0.5735.289 Electron/25.5.0 Safari/537.36" etag="HzuajIbGSPGsoikahB--" version="21.6.8" type="device">
  <diagram name="Page-1" id="HQoMPjPJpVArzh6-Ozhf">
    <mxGraphModel dx="1418" dy="820" grid="0" gridSize="10" guides="1" tooltips="1" connect="1" arrows="1" fold="1" page="1" pageScale="1" pageWidth="827" pageHeight="1169" math="0" shadow="0">
      <root>
        <mxCell id="0" />
        <mxCell id="1" parent="0" />
        <mxCell id="4Ezf6pNzRTtqgGtSC2_8-1" value="task" style="swimlane;childLayout=stackLayout;horizontal=1;startSize=50;horizontalStack=0;rounded=1;fontSize=21;fontStyle=0;strokeWidth=2;resizeParent=0;resizeLast=1;shadow=0;dashed=0;align=center;arcSize=4;whiteSpace=wrap;html=1;fontFamily=Ink Free;labelBackgroundColor=default;" parent="1" vertex="1">
          <mxGeometry x="421" y="425" width="318" height="208" as="geometry" />
        </mxCell>
        <mxCell id="4Ezf6pNzRTtqgGtSC2_8-2" value="id, int, null (pk)&lt;br&gt;name, varchar(45), not null&lt;br&gt;created, date, not null&lt;br&gt;due, date&lt;br&gt;spenting, decimal(6,2)&amp;nbsp;" style="align=left;strokeColor=none;fillColor=none;spacingLeft=4;fontSize=21;verticalAlign=top;resizable=0;rotatable=0;part=1;html=1;fontFamily=Ink Free;labelBackgroundColor=default;" parent="4Ezf6pNzRTtqgGtSC2_8-1" vertex="1">
          <mxGeometry y="50" width="318" height="158" as="geometry" />
        </mxCell>
        <mxCell id="4Ezf6pNzRTtqgGtSC2_8-3" value="project" style="swimlane;childLayout=stackLayout;horizontal=1;startSize=50;horizontalStack=0;rounded=1;fontSize=21;fontStyle=0;strokeWidth=2;resizeParent=0;resizeLast=1;shadow=0;dashed=0;align=center;arcSize=4;whiteSpace=wrap;html=1;fontFamily=Ink Free;labelBackgroundColor=default;" parent="1" vertex="1">
          <mxGeometry x="438" y="139" width="268" height="118" as="geometry" />
        </mxCell>
        <mxCell id="4Ezf6pNzRTtqgGtSC2_8-4" value="id, int, null (pk)&lt;br&gt;name, varchar(45), not null" style="align=left;strokeColor=none;fillColor=none;spacingLeft=4;fontSize=21;verticalAlign=top;resizable=0;rotatable=0;part=1;html=1;fontFamily=Ink Free;labelBackgroundColor=default;" parent="4Ezf6pNzRTtqgGtSC2_8-3" vertex="1">
          <mxGeometry y="50" width="268" height="68" as="geometry" />
        </mxCell>
        <mxCell id="4Ezf6pNzRTtqgGtSC2_8-9" style="edgeStyle=orthogonalEdgeStyle;rounded=0;orthogonalLoop=1;jettySize=auto;html=1;endArrow=ERzeroToMany;endFill=0;fontFamily=Ink Free;fontSize=21;strokeWidth=2;labelBackgroundColor=default;" parent="1" source="4Ezf6pNzRTtqgGtSC2_8-6" edge="1">
          <mxGeometry relative="1" as="geometry">
            <mxPoint x="622" y="137" as="targetPoint" />
            <Array as="points">
              <mxPoint x="219" y="85" />
              <mxPoint x="622" y="85" />
            </Array>
          </mxGeometry>
        </mxCell>
        <mxCell id="4Ezf6pNzRTtqgGtSC2_8-6" value="user" style="swimlane;childLayout=stackLayout;horizontal=1;startSize=50;horizontalStack=0;rounded=1;fontSize=21;fontStyle=0;strokeWidth=2;resizeParent=0;resizeLast=1;shadow=0;dashed=0;align=center;arcSize=4;whiteSpace=wrap;html=1;fontFamily=Ink Free;labelBackgroundColor=default;" parent="1" vertex="1">
          <mxGeometry x="85" y="131" width="280" height="149" as="geometry" />
        </mxCell>
        <mxCell id="4Ezf6pNzRTtqgGtSC2_8-7" value="id, int, not null (pk)&lt;br&gt;name, varchar(45), not null&lt;br style=&quot;font-size: 21px;&quot;&gt;e-mail, varchar(30), not null" style="align=left;strokeColor=none;fillColor=none;spacingLeft=4;fontSize=21;verticalAlign=top;resizable=0;rotatable=0;part=1;html=1;fontFamily=Ink Free;labelBackgroundColor=default;" parent="4Ezf6pNzRTtqgGtSC2_8-6" vertex="1">
          <mxGeometry y="50" width="280" height="99" as="geometry" />
        </mxCell>
        <mxCell id="4Ezf6pNzRTtqgGtSC2_8-8" style="edgeStyle=orthogonalEdgeStyle;rounded=0;orthogonalLoop=1;jettySize=auto;html=1;endArrow=ERzeroToMany;endFill=0;startArrow=ERone;startFill=0;fontFamily=Ink Free;fontSize=21;strokeWidth=2;labelBackgroundColor=default;" parent="1" source="4Ezf6pNzRTtqgGtSC2_8-7" target="4Ezf6pNzRTtqgGtSC2_8-1" edge="1">
          <mxGeometry relative="1" as="geometry">
            <Array as="points">
              <mxPoint x="226" y="378" />
            </Array>
          </mxGeometry>
        </mxCell>
        <mxCell id="4Ezf6pNzRTtqgGtSC2_8-16" value="&lt;font style=&quot;font-size: 21px;&quot; face=&quot;Ink Free&quot;&gt;Registra&lt;/font&gt;" style="edgeLabel;html=1;align=center;verticalAlign=middle;resizable=0;points=[];labelBackgroundColor=default;" parent="4Ezf6pNzRTtqgGtSC2_8-8" vertex="1" connectable="0">
          <mxGeometry x="-0.1062" y="2" relative="1" as="geometry">
            <mxPoint x="48" as="offset" />
          </mxGeometry>
        </mxCell>
        <mxCell id="4Ezf6pNzRTtqgGtSC2_8-12" style="edgeStyle=orthogonalEdgeStyle;rounded=0;orthogonalLoop=1;jettySize=auto;html=1;entryX=0;entryY=0.5;entryDx=0;entryDy=0;endArrow=ERzeroToMany;endFill=0;strokeWidth=2;labelBackgroundColor=default;" parent="1" source="4Ezf6pNzRTtqgGtSC2_8-10" target="4Ezf6pNzRTtqgGtSC2_8-2" edge="1">
          <mxGeometry relative="1" as="geometry" />
        </mxCell>
        <mxCell id="4Ezf6pNzRTtqgGtSC2_8-10" value="priority" style="swimlane;childLayout=stackLayout;horizontal=1;startSize=50;horizontalStack=0;rounded=1;fontSize=21;fontStyle=0;strokeWidth=2;resizeParent=0;resizeLast=1;shadow=0;dashed=0;align=center;arcSize=4;whiteSpace=wrap;html=1;fontFamily=Ink Free;labelBackgroundColor=default;" parent="1" vertex="1">
          <mxGeometry x="5" y="425" width="276" height="126" as="geometry" />
        </mxCell>
        <mxCell id="4Ezf6pNzRTtqgGtSC2_8-11" value="id, int, not null (pk)&lt;br&gt;name, varchar(45), not null" style="align=left;strokeColor=none;fillColor=none;spacingLeft=4;fontSize=21;verticalAlign=top;resizable=0;rotatable=0;part=1;html=1;fontFamily=Ink Free;labelBackgroundColor=default;" parent="4Ezf6pNzRTtqgGtSC2_8-10" vertex="1">
          <mxGeometry y="50" width="276" height="76" as="geometry" />
        </mxCell>
        <mxCell id="4Ezf6pNzRTtqgGtSC2_8-13" style="edgeStyle=orthogonalEdgeStyle;rounded=0;orthogonalLoop=1;jettySize=auto;html=1;entryX=1.003;entryY=0.359;entryDx=0;entryDy=0;entryPerimeter=0;endArrow=ERzeroToMany;fontSize=21;fontFamily=Ink Free;endFill=0;startArrow=ERone;startFill=0;strokeWidth=2;exitX=1;exitY=0.25;exitDx=0;exitDy=0;labelBackgroundColor=default;" parent="1" source="4Ezf6pNzRTtqgGtSC2_8-4" target="4Ezf6pNzRTtqgGtSC2_8-2" edge="1">
          <mxGeometry relative="1" as="geometry">
            <Array as="points">
              <mxPoint x="785" y="206" />
              <mxPoint x="785" y="532" />
            </Array>
          </mxGeometry>
        </mxCell>
        <mxCell id="4Ezf6pNzRTtqgGtSC2_8-17" value="&lt;font style=&quot;font-size: 21px;&quot; face=&quot;Ink Free&quot;&gt;Trabalha em&lt;/font&gt;" style="edgeLabel;html=1;align=center;verticalAlign=middle;resizable=0;points=[];labelBackgroundColor=default;" parent="1" vertex="1" connectable="0">
          <mxGeometry x="375" y="371" as="geometry">
            <mxPoint x="36" y="-288" as="offset" />
          </mxGeometry>
        </mxCell>
        <mxCell id="4Ezf6pNzRTtqgGtSC2_8-19" value="&lt;font style=&quot;font-size: 21px;&quot; face=&quot;Ink Free&quot;&gt;Possui&lt;/font&gt;" style="edgeLabel;html=1;align=center;verticalAlign=middle;resizable=0;points=[];labelBackgroundColor=default;" parent="1" vertex="1" connectable="0">
          <mxGeometry x="787" y="345" as="geometry" />
        </mxCell>
        <mxCell id="4Ezf6pNzRTtqgGtSC2_8-20" value="&lt;font style=&quot;font-size: 21px;&quot; face=&quot;Ink Free&quot;&gt;Classifica&lt;/font&gt;" style="edgeLabel;html=1;align=center;verticalAlign=middle;resizable=0;points=[];labelBackgroundColor=default;" parent="1" vertex="1" connectable="0">
          <mxGeometry x="400" y="518" as="geometry">
            <mxPoint x="-50" y="1" as="offset" />
          </mxGeometry>
        </mxCell>
      </root>
    </mxGraphModel>
  </diagram>
</mxfile>
